<?xml version="1.0" encoding="utf-8"?>
<!-- Generator: Adobe Illustrator 24.1.2, SVG Export Plug-In . SVG Version: 6.00 Build 0)  -->
<svg version="1.1" id="Layer_1" xmlns="http://www.w3.org/2000/svg" xmlns:xlink="http://www.w3.org/1999/xlink" x="0px" y="0px"
	 viewBox="0 0 1200 580" style="enable-background:new 0 0 1200 580;" xml:space="preserve">
<style type="text/css">
	.st0{fill:#FFFA72;}
	.st1{fill:#0000FF;}
	.st2{opacity:0.33;fill:#0000DB;}
	.st3{opacity:0.33;fill:#0000B5;}
	.st4{opacity:0.33;fill:#00009A;}
	.st5{opacity:0.33;fill:#000081;}
	.st6{opacity:0.33;fill:#000064;}
	.st7{opacity:0.33;fill:#000044;}
	.st8{opacity:0.33;fill:#000021;}
	.st9{opacity:0.33;}
</style>
<path class="st0" d="M180.6,55.3C152,117,157.4,155.7,196.9,171.4c59.3,23.5,200.3,32.9,259.3,83.9c59,51,238.7,11.6,269.4-75.9
	C756.4,91.9,811.7-43,519.9-43C325.3-43,212.2-10.3,180.6,55.3L180.6,55.3z"/>
<path class="st1" d="M-144.2,146.7c-7.3,145.1,43.1,236,151.3,272.8c162.3,55.2,502.9,77.3,691,197.2
	c188.2,119.8,572.2,27.2,559.2-178.5c-13-205.7-14.2-522.7-700.1-522.7C100-84.4-133.8-7.4-144.2,146.7L-144.2,146.7z"/>
<path class="st1" d="M-300.9,149.4c-9.4,214.2,55.4,348.5,194.5,402.9c208.7,81.6,646.6,114.2,888.6,291.2
	c242,177,735.8,40.2,719.2-263.6C1484.7,276.2,1483.1-192,601.1-192C13.1-192-287.5-78.2-300.9,149.4L-300.9,149.4z"/>
<path class="st2" d="M-110.3,136.6C-124,272.4-81.1,357.5,18.4,392c149.3,51.7,467.1,72.4,637.6,184.6
	C826.6,688.8,1190.5,602,1188,409.5c-2.5-192.5,11.3-489.3-630.8-489.3C129.1-79.8-93.4-7.7-110.3,136.6L-110.3,136.6z"/>
<path class="st3" d="M-75.8,126.4c-18.9,126.5,17.2,205.9,108.4,238c136.8,48.2,432,67.5,585.8,172
	c153.8,104.5,496.8,23.7,503.3-155.7c6.4-179.4,32.7-456-565.6-456C157.1-75.2-53.5-8-75.8,126.4L-75.8,126.4z"/>
<path class="st4" d="M-40.7,116.3c-23.1,117.3,6.9,190.8,90,220.6c124.7,44.7,397.4,62.5,535.4,159.4c138,96.9,459.4,22,473.3-144.3
	c13.8-166.3,50.3-422.6-504.2-422.6C184-70.6-14.1-8.3-40.7,116.3L-40.7,116.3z"/>
<path class="st5" d="M-5.1,106.1c-26.3,108-1.8,175.7,73.5,203.2c112.9,41.1,363.4,57.6,486.3,146.8
	c122.9,89.2,422.2,20.3,442.1-132.9C1016.6,170,1061.2-66,550.4-66C209.9-66,24.7-8.7-5.1,106.1L-5.1,106.1z"/>
<path class="st6" d="M31.1,95.9c-28.5,98.8-8.9,160.7,58.8,185.8c101.5,37.6,329.8,52.7,438.6,134.2
	c108.7,81.6,385.2,18.5,409.7-121.5c24.5-140,75-355.9-392-355.9C234.8-61.4,63.1-9,31.1,95.9L31.1,95.9z"/>
<path class="st7" d="M67.8,85.8c-29.8,89.5-14.6,145.6,45.8,168.3c90.5,34.1,296.8,47.7,392,121.7c95.2,73.9,348.3,16.8,376.2-110.1
	c27.9-126.9,82.4-322.5-340.8-322.5C258.7-56.8,101-9.3,67.8,85.8L67.8,85.8z"/>
<path class="st8" d="M104.9,75.6c-30.3,80.2-18.8,130.5,34.4,150.9c79.8,30.6,264.2,42.8,346.6,109.1c82.4,66.3,311.6,15,341.6-98.7
	c30-113.8,86.6-289.1-292.8-289.1C281.8-52.2,138.5-9.6,104.9,75.6L104.9,75.6z"/>
<path class="st9" d="M142.6,65.5c-29.9,71-21.7,115.5,24.5,133.5c69.4,27,232.1,37.8,302.4,96.5c70.4,58.6,275.1,13.3,306-87.3
	c31-100.7,87.8-255.8-247.8-255.8C304-47.6,175.6-9.9,142.6,65.5L142.6,65.5z"/>
</svg>
