<?xml version="1.0" encoding="utf-8"?>
<!-- Generator: Adobe Illustrator 24.1.2, SVG Export Plug-In . SVG Version: 6.00 Build 0)  -->
<svg version="1.1" id="Layer_1" xmlns="http://www.w3.org/2000/svg" xmlns:xlink="http://www.w3.org/1999/xlink" x="0px" y="0px"
	 viewBox="0 0 7754.7 3061.3" style="enable-background:new 0 0 7754.7 3061.3;" xml:space="preserve">
<style type="text/css">
	.st0{fill:#231F20;}
	.st1{fill:#016699;}
	.st2{fill:#00C1F3;}
	.st3{fill:none;}
	.st4{fill:#58595B;}
	.st5{fill:#BEC0C2;}
	.st6{fill:#939598;}
	.st7{fill:#0084B6;}
	.st8{fill:#4D4D4F;}
	.st9{fill:#FFFFFF;}
	.st10{fill:#474848;}
	.st11{fill:#12C3F4;}
</style>
<path class="st0" d="M7051,2362.8H729.7c-376.7,0-682-305.4-682-682v-352c0-376.7,305.4-682,682-682H7051c376.7,0,682,305.4,682,682
	v352C7733,2057.4,7427.6,2362.8,7051,2362.8z"/>
<polygon class="st1" points="3747.6,992.5 4047.4,1508.4 3741.8,2028.7 2215.9,2035.4 1915.6,1516.4 3443.9,1514.9 "/>
<polygon class="st2" points="1914.1,1513.8 2670.9,186.5 3281.1,183.9 2829.3,981.5 3746.7,992.5 3443.9,1516.4 "/>
<path class="st3" d="M3281.7,186.5"/>
<polygon class="st1" points="3281.1,183.9 3438.9,457 3298.6,708.3 3461.4,989.9 2829.3,981.5 "/>
<polygon class="st4" points="3746.7,992.5 3461.4,989.9 3298.6,708.3 3902.2,711.5 4361.9,1506 3904,2310.6 2376.5,2314.4 
	2529,2034 3740.9,2028.7 4046.6,1508.4 "/>
<polygon class="st5" points="3902.2,711.5 4205.1,183.9 3591.2,183.9 3298.6,708.3 "/>
<polygon class="st6" points="3902.2,711.5 4205.1,183.9 4967.4,1515.6 4202,2825.6 2672.2,2825.5 2376.5,2314.4 3904,2310.6 
	4361.9,1506 "/>
<polygon class="st7" points="3443.8,1516.6 3740.9,2028.7 2215.8,2037.1 1914.1,1513.8 "/>
<polygon class="st8" points="3904,2310.6 4202,2825.6 2672.2,2825.5 2376.5,2314.4 "/>
<g>
	<path class="st9" d="M5247.6,1608.4c-44.8,1.1-78.5,19.4-101.1,54.7c-22.6,35.3-33.9,114.5-33.9,237.5c0,94.1-2.5,163.8-7.4,209.2
		c-4.9,45.4-17.2,83.3-36.8,113.9c-19.7,30.6-45,52.7-76.2,66.4c-31.1,13.6-75.1,20.5-132.1,20.5h-32.5v-200.6
		c56.8,0,91.6-8.2,104.5-24.6c12.9-16.4,19.7-49.1,20.5-98c2.5-142.8,6.3-234.2,11.4-274.2c5.1-40,15.4-77.5,30.8-112.5
		c15.4-35,39.7-65.8,72.9-92.5c-35.3-31-60-61.3-74-91c-14-29.6-23.4-62.2-28.3-97.6s-8.6-101-11.1-196.5
		c-2.5-95.6-5.3-150.3-8.6-164.1c-3.3-13.8-11.3-25.6-23.8-35.3c-12.6-9.7-44.7-14.5-96.2-14.5V708.3h32.7
		c65.8,0,116.6,10.1,152.4,30.4s61.7,53.4,77.8,99.4c16,46,24.1,120.3,24.1,222.9c0,102.6,2.9,174.8,8.6,216.7s18.6,73.3,38.5,94.4
		c19.9,21.1,49.2,33,87.8,35.8L5247.6,1608.4L5247.6,1608.4z"/>
</g>
<g>
	<path class="st9" d="M1642,1608.4v-200.6c44.8-0.6,78.5-18.4,101.1-53.6c22.6-35.2,33.9-114.1,33.9-236.6c0-94.3,2.6-164,7.7-209.2
		c5.1-45.2,17.5-83,37.1-113.5s44.9-52.5,76-66.1c31.1-13.6,75-20.4,131.8-20.4h32.5V909c-59.2,0-94.7,8.2-106.3,24.5
		c-11.7,16.3-17.9,48.6-18.7,96.8c-2.4,133.5-5.6,220.1-9.5,259.7c-3.9,39.6-12.9,77.7-27,114.3s-40.4,71.2-78.8,103.9
		c36.5,30,63.1,65.8,79.8,107.5s26.4,101.7,29.3,180.1l9.2,243.4c3.7,22.8,12.4,40.3,26.4,52.5c13.9,12.2,45.8,18.3,95.6,18.3v200.6
		h-31.9c-65.5,0-116.1-10.2-151.7-30.5c-35.6-20.3-61.4-53.6-77.4-99.8c-16-46.2-23.9-120.8-23.9-223.8c0-113.5-2.9-186.2-8.6-217.9
		s-16.8-60.8-33.3-87.2S1687.6,1610.7,1642,1608.4z"/>
</g>
<polygon class="st10" points="3298.6,708.3 3902.2,711.5 4361.9,1506 4046.6,1508.4 3746.7,992.5 3461.4,989.9 "/>
<path class="st5" d="M3270.2,188.9"/>
<path class="st1" d="M3281.6,182.5"/>
<path class="st2" d="M1913.4,1521.7"/>
<path class="st2" d="M3289,188.2"/>
<path class="st9" d="M5578.4,1775.5h-107.2v-550.1h107.2V1775.5z"/>
<path class="st9" d="M5802.6,1781.7c-46.8,0-84.5-10.7-113-32.2c-32.5-25.2-48.7-59.5-48.7-102.9v-71.5H5748v71.5
	c0,18.9,4.9,32,14.6,39.3c8.4,6.3,21.8,9.4,40,9.4c18.8,0,32.2-3.1,40-9.4c9.8-6.8,14.6-19.9,14.6-39.3V1612
	c0-24.1-12-45.1-36.1-62.9c-5.2-3.7-18.9-10.5-40.9-20.4c-30.5-13.1-53-24.6-67.3-34.6c-23.4-16.8-41.3-35.9-53.6-57.4
	c-12.4-21.5-18.5-44.5-18.5-69.2v-13.4c0-43.5,16.2-77.8,48.7-102.9c28.6-21.5,66.3-32.2,113-32.2s84.5,10.8,113,32.2
	c32.5,25.2,48.7,59.5,48.7,102.9v47.9h-107.2v-47.9c0-19.4-4.9-32.5-14.6-39.3c-7.8-6.3-21.1-9.4-40-9.4c-18.2,0-31.5,3.1-40,9.4
	c-9.8,7.3-14.6,20.4-14.6,39.3v13.4c0,24.1,12,44.8,36.1,62.1c6.5,4.2,19.2,10.5,38,18.9c33.8,14.7,57.2,26.7,70.2,36.2
	c48.1,34.6,72.1,77,72.1,127.3v34.6c0,43.5-16.3,77.8-48.7,102.9C5887,1771,5849.4,1781.7,5802.6,1781.7z"/>
<path class="st11" d="M6460.4,1775.5h-282.6v-550.1H6285V1689h175.4L6460.4,1775.5L6460.4,1775.5z"/>
<path class="st9" d="M6669,1781.7c-46.8,0-84.5-10.7-113-32.2c-32.5-25.2-48.7-59.5-48.7-102.9v-421.2h107.2v421.2
	c0,19.4,4.5,32.5,13.6,39.3c8.4,6.3,22.1,9.4,40.9,9.4c18.2,0,31.5-3.1,40-9.4c9.8-7.3,14.6-20.4,14.6-39.3v-421.2h107.2v421.2
	c0,42.4-16.3,76.8-48.7,102.9C6752.1,1771,6714.4,1781.7,6669,1781.7z"/>
<path class="st9" d="M7245.9,1775.5h-115l-82.8-176l-37,68.4v107.7h-107.2v-550.1H7011v223.2l118.9-223.2h116l-137.4,260.9
	L7245.9,1775.5z"/>
<path class="st9" d="M7404.8,1311.8v138.3h120.9v86.4h-120.9V1689h175.4v86.4h-282.6v-550.1h282.6v86.4L7404.8,1311.8L7404.8,1311.8
	z"/>
<g>
	<path class="st9" d="M505.9,1311.8H396.8v463.7H289.6v-463.7H180.4v-86.4h325.5V1311.8z"/>
	<path class="st9" d="M877.2,1225.3v550.1H770v-238.9H660.9v238.9H553.7v-550.1h107.2v224.8H770v-224.8H877.2z"/>
	<path class="st9" d="M1062.4,1775.5H955.2v-550.1h107.2V1775.5z"/>
	<path class="st9" d="M1286.5,1781.7c-46.8,0-84.5-10.7-113.1-32.2c-32.5-25.2-48.7-59.5-48.7-102.9v-71.5H1232v71.5
		c0,18.9,4.9,32,14.6,39.3c8.4,6.3,21.8,9.4,40,9.4c18.8,0,32.2-3.1,40-9.4c9.8-6.8,14.6-19.9,14.6-39.3V1612
		c0-24.1-12-45.1-36.1-62.9c-5.2-3.7-18.8-10.5-40.9-20.4c-30.6-13.1-53-24.6-67.3-34.6c-23.4-16.8-41.3-35.9-53.6-57.4
		c-12.3-21.5-18.5-44.5-18.5-69.2v-13.4c0-43.5,16.2-77.8,48.7-102.9c28.6-21.5,66.3-32.2,113.1-32.2s84.4,10.7,113.1,32.2
		c32.5,25.2,48.7,59.5,48.7,102.9v47.9h-107.2v-47.9c0-19.4-4.9-32.5-14.6-39.3c-7.8-6.3-21.1-9.4-40-9.4c-18.2,0-31.5,3.1-40,9.4
		c-9.8,7.3-14.6,20.4-14.6,39.3v13.4c0,24.1,12,44.8,36.1,62.1c6.5,4.2,19.2,10.5,38,18.9c33.8,14.7,57.2,26.7,70.2,36.2
		c48.1,34.6,72.1,77,72.1,127.3v34.6c0,43.5-16.3,77.8-48.7,102.9C1371,1771,1333.3,1781.7,1286.5,1781.7z"/>
</g>
</svg>
