<?xml version="1.0" encoding="utf-8"?>
<!-- Generator: Adobe Illustrator 24.1.2, SVG Export Plug-In . SVG Version: 6.00 Build 0)  -->
<svg version="1.1" id="Layer_1" xmlns="http://www.w3.org/2000/svg" xmlns:xlink="http://www.w3.org/1999/xlink" x="0px" y="0px"
	 viewBox="0 0 7754.67 3061.33" style="enable-background:new 0 0 7754.67 3061.33;" xml:space="preserve">
<style type="text/css">
	.st0{fill:#016699;}
	.st1{fill:#00C1F3;}
	.st2{fill:none;}
	.st3{fill:#58595B;}
	.st4{fill:#BEC0C2;}
	.st5{fill:#939598;}
	.st6{fill:#0084B6;}
	.st7{fill:#4D4D4F;}
	.st8{fill:#231F20;}
	.st9{fill:#474848;}
</style>
<polygon class="st0" points="3747.59,992.51 4047.42,1508.37 3741.79,2028.68 2215.93,2035.4 1915.64,1516.37 3443.91,1514.89 "/>
<polygon class="st1" points="1914.14,1513.79 2670.92,186.47 3281.06,183.9 2829.34,981.45 3746.73,992.51 3443.92,1516.37 "/>
<path class="st2" d="M3281.71,186.47"/>
<polygon class="st0" points="3281.06,183.9 3438.93,456.98 3298.56,708.35 3461.43,989.87 2829.34,981.45 "/>
<polygon class="st3" points="3746.73,992.51 3461.43,989.87 3298.56,708.35 3902.22,711.5 4361.87,1506.01 3904.01,2310.55 
	2376.47,2314.39 2528.97,2034.02 3740.94,2028.68 4046.57,1508.37 "/>
<polygon class="st4" points="3902.22,711.5 4205.07,183.9 3591.17,183.9 3298.56,708.35 "/>
<polygon class="st5" points="3902.22,711.5 4205.07,183.9 4967.35,1515.55 4202,2825.62 2672.17,2825.49 2376.47,2314.39 
	3904.01,2310.55 4361.87,1506.01 "/>
<polygon class="st6" points="3443.82,1516.61 3740.94,2028.68 2215.83,2037.12 1914.14,1513.79 "/>
<polygon class="st7" points="3904.01,2310.55 4202,2825.62 2672.17,2825.49 2376.47,2314.39 "/>
<g>
	<path class="st8" d="M5247.63,1608.4c-44.8,1.12-78.5,19.36-101.09,54.69c-22.61,35.35-33.91,114.52-33.91,237.53
		c0,94.06-2.47,163.76-7.38,209.15c-4.91,45.35-17.19,83.32-36.84,113.95c-19.66,30.6-45.05,52.74-76.17,66.38
		c-31.13,13.64-75.14,20.46-132.06,20.46h-32.55v-200.61c56.78,0,91.59-8.2,104.47-24.59c12.88-16.39,19.72-49.05,20.53-97.96
		c2.45-142.79,6.25-234.21,11.38-274.23c5.13-40.01,15.39-77.52,30.78-112.53c15.38-35.01,39.69-65.85,72.92-92.53
		c-35.34-31.01-59.98-61.34-73.95-90.99c-13.97-29.63-23.41-62.18-28.34-97.64s-8.63-100.96-11.09-196.53
		c-2.47-95.56-5.34-150.27-8.64-164.12c-3.31-13.85-11.25-25.61-23.83-35.31c-12.59-9.7-44.66-14.55-96.22-14.55V708.35h32.72
		c65.83,0,116.64,10.12,152.44,30.37s61.72,53.37,77.77,99.38c16.05,46.02,24.08,120.32,24.08,222.87
		c0,102.59,2.88,174.82,8.63,216.67s18.59,73.32,38.53,94.4c19.94,21.07,49.22,33,87.84,35.75V1608.4z"/>
</g>
<g>
	<path class="st8" d="M1642.04,1608.4v-200.61c44.78-0.55,78.48-18.43,101.09-53.63c22.59-35.2,33.91-114.07,33.91-236.62
		c0-94.25,2.55-163.97,7.66-209.17c5.11-45.18,17.47-83.02,37.08-113.52c19.61-30.5,44.94-52.53,76-66.12
		c31.06-13.58,74.98-20.37,131.78-20.37h32.48v200.61c-59.23,0-94.67,8.18-106.31,24.53c-11.66,16.35-17.88,48.61-18.69,96.79
		c-2.45,133.52-5.63,220.08-9.5,259.68c-3.89,39.61-12.89,77.71-26.98,114.26s-40.36,71.18-78.77,103.87
		c36.53,30.01,63.13,65.85,79.75,107.53s26.39,101.7,29.27,180.05l9.23,243.42c3.67,22.77,12.45,40.26,26.36,52.5
		c13.89,12.22,45.77,18.34,95.64,18.34v200.61h-31.94c-65.53,0-116.09-10.17-151.72-30.48c-35.63-20.33-61.42-53.58-77.39-99.76
		c-15.97-46.21-23.95-120.79-23.95-223.76c0-113.54-2.89-186.17-8.64-217.9s-16.84-60.81-33.28-87.24
		S1687.64,1610.65,1642.04,1608.4z"/>
</g>
<polygon class="st9" points="3298.56,708.35 3902.22,711.5 4361.87,1506.01 4046.57,1508.37 3746.73,992.51 3461.43,989.87 "/>
<path class="st4" d="M3270.24,188.86"/>
<path class="st0" d="M3281.64,182.49"/>
<path class="st1" d="M1913.4,1521.73"/>
<path class="st1" d="M3289.03,188.21"/>
<g>
	<path class="st8" d="M5578.44,1775.46h-107.2v-550.12h107.2V1775.46z"/>
	<path class="st8" d="M5802.59,1781.74c-46.78,0-84.47-10.73-113.05-32.22c-32.5-25.15-48.73-59.46-48.73-102.95v-71.51h107.2v71.51
		c0,18.86,4.87,31.96,14.62,39.29c8.44,6.29,21.76,9.43,39.96,9.43c18.84,0,32.16-3.14,39.96-9.43c9.75-6.8,14.62-19.91,14.62-39.29
		v-34.58c0-24.09-12.03-45.05-36.06-62.87c-5.21-3.66-18.85-10.47-40.93-20.43c-30.55-13.09-52.96-24.62-67.25-34.58
		c-23.39-16.76-41.27-35.88-53.6-57.37c-12.35-21.48-18.52-44.53-18.52-69.16v-13.36c0-43.48,16.23-77.8,48.73-102.95
		c28.58-21.48,66.27-32.22,113.05-32.22s84.45,10.75,113.05,32.22c32.48,25.15,48.73,59.47,48.73,102.95v47.94h-107.21v-47.94
		c0-19.38-4.87-32.48-14.62-39.29c-7.8-6.29-21.12-9.43-39.96-9.43c-18.2,0-31.52,3.14-39.96,9.43
		c-9.75,7.34-14.62,20.43-14.62,39.29v13.36c0,24.1,12.01,44.8,36.06,62.08c6.49,4.2,19.16,10.49,38.01,18.86
		c33.78,14.67,57.17,26.72,70.17,36.15c48.08,34.58,72.12,77.02,72.12,127.31v34.58c0,43.49-16.25,77.8-48.73,102.95
		C5887.04,1771.01,5849.37,1781.74,5802.59,1781.74z"/>
	<path class="st8" d="M6460.42,1775.46h-282.63v-550.12h107.2v463.67h175.43V1775.46z"/>
	<path class="st8" d="M6668.97,1781.74c-46.78,0-84.47-10.73-113.05-32.22c-32.5-25.15-48.73-59.46-48.73-102.95v-421.23h107.2
		v421.23c0,19.39,4.54,32.49,13.64,39.29c8.44,6.29,22.08,9.43,40.93,9.43c18.18,0,31.51-3.14,39.96-9.43
		c9.75-7.33,14.62-20.43,14.62-39.29v-421.23h107.2v421.23c0,42.44-16.25,76.76-48.73,102.95
		C6752.13,1771.01,6714.44,1781.74,6668.97,1781.74z"/>
	<path class="st8" d="M7245.91,1775.46h-115l-82.84-176.04l-37.03,68.37v107.67h-107.2v-550.12h107.2v223.19l118.9-223.19h115.97
		l-137.42,260.91L7245.91,1775.46z"/>
	<path class="st8" d="M7404.76,1311.79v138.31h120.85v86.45h-120.85v152.46h175.42v86.45h-282.63v-550.12h282.63v86.45H7404.76z"/>
</g>
<g>
	<path class="st8" d="M505.92,1311.79H396.77v463.67h-107.2v-463.67H180.41v-86.45h325.51V1311.79z"/>
	<path class="st8" d="M877.24,1225.34v550.12h-107.2v-238.91H660.88v238.91h-107.2v-550.12h107.2v224.76h109.15v-224.76H877.24z"/>
	<path class="st8" d="M1062.4,1775.46h-107.2v-550.12h107.2V1775.46z"/>
	<path class="st8" d="M1286.54,1781.74c-46.78,0-84.47-10.73-113.05-32.22c-32.5-25.15-48.73-59.46-48.73-102.95v-71.52h107.2v71.52
		c0,18.86,4.87,31.96,14.62,39.29c8.44,6.29,21.76,9.43,39.96,9.43c18.84,0,32.16-3.14,39.96-9.43c9.75-6.8,14.62-19.91,14.62-39.29
		v-34.58c0-24.09-12.03-45.05-36.06-62.87c-5.21-3.66-18.85-10.47-40.93-20.43c-30.55-13.09-52.96-24.62-67.25-34.58
		c-23.39-16.76-41.27-35.88-53.6-57.37c-12.35-21.48-18.52-44.52-18.52-69.16v-13.36c0-43.48,16.23-77.8,48.73-102.95
		c28.58-21.48,66.27-32.22,113.05-32.22c46.78,0,84.45,10.74,113.05,32.22c32.48,25.15,48.73,59.47,48.73,102.95v47.94h-107.2
		v-47.94c0-19.38-4.87-32.48-14.62-39.29c-7.8-6.29-21.12-9.43-39.96-9.43c-18.2,0-31.52,3.14-39.96,9.43
		c-9.75,7.34-14.62,20.43-14.62,39.29v13.36c0,24.1,12.01,44.79,36.06,62.08c6.49,4.2,19.16,10.49,38.01,18.86
		c33.78,14.67,57.17,26.72,70.17,36.15c48.07,34.58,72.12,77.02,72.12,127.31v34.58c0,43.49-16.25,77.8-48.73,102.95
		C1370.99,1771.01,1333.32,1781.74,1286.54,1781.74z"/>
</g>
</svg>
